<?xml version="1.0" encoding="utf-8" standalone="no"?>
<!DOCTYPE svg PUBLIC "-//W3C//DTD SVG 1.1//EN"
  "http://www.w3.org/Graphics/SVG/1.1/DTD/svg11.dtd">
<svg xmlns:xlink="http://www.w3.org/1999/xlink" width="1008pt" height="432pt" viewBox="0 0 1008 432" xmlns="http://www.w3.org/2000/svg" version="1.1">
 <metadata>
  <rdf:RDF xmlns:dc="http://purl.org/dc/elements/1.1/" xmlns:cc="http://creativecommons.org/ns#" xmlns:rdf="http://www.w3.org/1999/02/22-rdf-syntax-ns#">
   <cc:Work>
    <dc:type rdf:resource="http://purl.org/dc/dcmitype/StillImage"/>
    <dc:date>2025-03-31T14:59:06.664410</dc:date>
    <dc:format>image/svg+xml</dc:format>
    <dc:creator>
     <cc:Agent>
      <dc:title>Matplotlib v3.9.2, https://matplotlib.org/</dc:title>
     </cc:Agent>
    </dc:creator>
   </cc:Work>
  </rdf:RDF>
 </metadata>
 <defs>
  <style type="text/css">*{stroke-linejoin: round; stroke-linecap: butt}</style>
 </defs>
 <g id="figure_1">
  <g id="patch_1">
   <path d="M 0 432 
L 1008 432 
L 1008 0 
L 0 0 
z
" style="fill: #ffffff"/>
  </g>
  <g id="axes_1">
   <g id="patch_2">
    <path d="M 126 384.48 
L 907.2 384.48 
L 907.2 51.84 
L 126 51.84 
z
" style="fill: #ffffff"/>
   </g>
   <g id="PathCollection_1">
    <path d="M 347.503705 245.219284 
C 352.55128 245.219284 357.392799 243.213861 360.961974 239.644686 
C 364.531149 236.075512 366.536572 231.233992 366.536572 226.186417 
C 366.536572 221.138842 364.531149 216.297323 360.961974 212.728149 
C 357.392799 209.158974 352.55128 207.153551 347.503705 207.153551 
C 342.45613 207.153551 337.614611 209.158974 334.045436 212.728149 
C 330.476262 216.297323 328.470839 221.138842 328.470839 226.186417 
C 328.470839 231.233992 330.476262 236.075512 334.045436 239.644686 
C 337.614611 243.213861 342.45613 245.219284 347.503705 245.219284 
z
" clip-path="url(#p3e6528c168)" style="fill: #f2ab15; stroke: #ffffff"/>
    <path d="M 401.381958 247.076085 
C 405.243373 247.076085 408.947155 245.541928 411.677588 242.811495 
C 414.408021 240.081062 415.942177 236.377281 415.942177 232.515865 
C 415.942177 228.65445 414.408021 224.950668 411.677588 222.220235 
C 408.947155 219.489802 405.243373 217.955645 401.381958 217.955645 
C 397.520542 217.955645 393.816761 219.489802 391.086327 222.220235 
C 388.355894 224.950668 386.821738 228.65445 386.821738 232.515865 
C 386.821738 236.377281 388.355894 240.081062 391.086327 242.811495 
C 393.816761 245.541928 397.520542 247.076085 401.381958 247.076085 
z
" clip-path="url(#p3e6528c168)" style="fill: #f2ab15; stroke: #ffffff"/>
    <path d="M 664.107574 190.709022 
C 665.547996 190.709022 666.929615 190.136736 667.948147 189.118204 
C 668.966679 188.099672 669.538965 186.718053 669.538965 185.277631 
C 669.538965 183.83721 668.966679 182.45559 667.948147 181.437059 
C 666.929615 180.418527 665.547996 179.846241 664.107574 179.846241 
C 662.667153 179.846241 661.285533 180.418527 660.267002 181.437059 
C 659.24847 182.45559 658.676184 183.83721 658.676184 185.277631 
C 658.676184 186.718053 659.24847 188.099672 660.267002 189.118204 
C 661.285533 190.136736 662.667153 190.709022 664.107574 190.709022 
z
" clip-path="url(#p3e6528c168)" style="fill: #f2ab15; stroke: #ffffff"/>
    <path d="M 507.487756 203.792327 
C 510.058996 203.792327 512.52527 202.770763 514.343411 200.952622 
C 516.161552 199.134481 517.183116 196.668207 517.183116 194.096968 
C 517.183116 191.525728 516.161552 189.059454 514.343411 187.241313 
C 512.52527 185.423172 510.058996 184.401608 507.487756 184.401608 
C 504.916517 184.401608 502.450243 185.423172 500.632102 187.241313 
C 498.813961 189.059454 497.792397 191.525728 497.792397 194.096968 
C 497.792397 196.668207 498.813961 199.134481 500.632102 200.952622 
C 502.450243 202.770763 504.916517 203.792327 507.487756 203.792327 
z
" clip-path="url(#p3e6528c168)" style="fill: #f2ab15; stroke: #ffffff"/>
    <path d="M 806.639682 119.179492 
C 810.004732 119.179492 813.232411 117.842544 815.611861 115.463094 
C 817.991311 113.083644 819.328259 109.855965 819.328259 106.490915 
C 819.328259 103.125865 817.991311 99.898185 815.611861 97.518736 
C 813.232411 95.139286 810.004732 93.802337 806.639682 93.802337 
C 803.274632 93.802337 800.046952 95.139286 797.667503 97.518736 
C 795.288053 99.898185 793.951104 103.125865 793.951104 106.490915 
C 793.951104 109.855965 795.288053 113.083644 797.667503 115.463094 
C 800.046952 117.842544 803.274632 119.179492 806.639682 119.179492 
z
" clip-path="url(#p3e6528c168)" style="fill: #f2ab15; stroke: #ffffff"/>
    <path d="M 542.350752 297.318153 
C 546.491234 297.318153 550.46269 295.673122 553.390453 292.745359 
C 556.318216 289.817596 557.963247 285.84614 557.963247 281.705658 
C 557.963247 277.565175 556.318216 273.593719 553.390453 270.665956 
C 550.46269 267.738194 546.491234 266.093163 542.350752 266.093163 
C 538.210269 266.093163 534.238813 267.738194 531.31105 270.665956 
C 528.383288 273.593719 526.738257 277.565175 526.738257 281.705658 
C 526.738257 285.84614 528.383288 289.817596 531.31105 292.745359 
C 534.238813 295.673122 538.210269 297.318153 542.350752 297.318153 
z
" clip-path="url(#p3e6528c168)" style="fill: #f2ab15; stroke: #ffffff"/>
    <path d="M 161.509091 257.990365 
C 163.293062 257.990365 165.004207 257.281585 166.265665 256.020127 
C 167.527124 254.758669 168.235903 253.047524 168.235903 251.263553 
C 168.235903 249.479581 167.527124 247.768437 166.265665 246.506978 
C 165.004207 245.24552 163.293062 244.536741 161.509091 244.536741 
C 159.72512 244.536741 158.013975 245.24552 156.752517 246.506978 
C 155.491058 247.768437 154.782279 249.479581 154.782279 251.263553 
C 154.782279 253.047524 155.491058 254.758669 156.752517 256.020127 
C 158.013975 257.281585 159.72512 257.990365 161.509091 257.990365 
z
" clip-path="url(#p3e6528c168)" style="fill: #f2ab15; stroke: #ffffff"/>
    <path d="M 527.209825 360.78413 
C 528.365818 360.78413 529.474621 360.324849 530.292032 359.507438 
C 531.109443 358.690028 531.568724 357.581225 531.568724 356.425231 
C 531.568724 355.269238 531.109443 354.160435 530.292032 353.343024 
C 529.474621 352.525614 528.365818 352.066332 527.209825 352.066332 
C 526.053831 352.066332 524.945029 352.525614 524.127618 353.343024 
C 523.310207 354.160435 522.850926 355.269238 522.850926 356.425231 
C 522.850926 357.581225 523.310207 358.690028 524.127618 359.507438 
C 524.945029 360.324849 526.053831 360.78413 527.209825 360.78413 
z
" clip-path="url(#p3e6528c168)" style="fill: #f2ab15; stroke: #ffffff"/>
    <path d="M 489.744089 221.583203 
C 493.227247 221.583203 496.568212 220.199329 499.031177 217.736365 
C 501.494141 215.2734 502.878014 211.932435 502.878014 208.449277 
C 502.878014 204.966119 501.494141 201.625154 499.031177 199.162189 
C 496.568212 196.699225 493.227247 195.315351 489.744089 195.315351 
C 486.260931 195.315351 482.919966 196.699225 480.457001 199.162189 
C 477.994037 201.625154 476.610163 204.966119 476.610163 208.449277 
C 476.610163 211.932435 477.994037 215.2734 480.457001 217.736365 
C 482.919966 220.199329 486.260931 221.583203 489.744089 221.583203 
z
" clip-path="url(#p3e6528c168)" style="fill: #f2ab15; stroke: #ffffff"/>
    <path d="M 775.228313 120.607314 
C 779.201937 120.607314 783.013346 119.028576 785.823123 116.2188 
C 788.632899 113.409023 790.211637 109.597614 790.211637 105.62399 
C 790.211637 101.650366 788.632899 97.838956 785.823123 95.02918 
C 783.013346 92.219403 779.201937 90.640666 775.228313 90.640666 
C 771.254689 90.640666 767.443279 92.219403 764.633503 95.02918 
C 761.823726 97.838956 760.244989 101.650366 760.244989 105.62399 
C 760.244989 109.597614 761.823726 113.409023 764.633503 116.2188 
C 767.443279 119.028576 771.254689 120.607314 775.228313 120.607314 
z
" clip-path="url(#p3e6528c168)" style="fill: #f2ab15; stroke: #ffffff"/>
    <path d="M 201.519972 355.26279 
C 202.777941 355.26279 203.984556 354.762993 204.874074 353.873475 
C 205.763592 352.983957 206.263388 351.777342 206.263388 350.519373 
C 206.263388 349.261404 205.763592 348.054789 204.874074 347.165271 
C 203.984556 346.275753 202.777941 345.775957 201.519972 345.775957 
C 200.262003 345.775957 199.055388 346.275753 198.16587 347.165271 
C 197.276352 348.054789 196.776555 349.261404 196.776555 350.519373 
C 196.776555 351.777342 197.276352 352.983957 198.16587 353.873475 
C 199.055388 354.762993 200.262003 355.26279 201.519972 355.26279 
z
" clip-path="url(#p3e6528c168)" style="fill: #f2ab15; stroke: #ffffff"/>
    <path d="M 477.836415 284.047323 
C 479.877789 284.047323 481.83583 283.236276 483.2793 281.792806 
C 484.72277 280.349336 485.533817 278.391295 485.533817 276.349921 
C 485.533817 274.308546 484.72277 272.350505 483.2793 270.907035 
C 481.83583 269.463565 479.877789 268.652518 477.836415 268.652518 
C 475.79504 268.652518 473.836999 269.463565 472.393529 270.907035 
C 470.950059 272.350505 470.139012 274.308546 470.139012 276.349921 
C 470.139012 278.391295 470.950059 280.349336 472.393529 281.792806 
C 473.836999 283.236276 475.79504 284.047323 477.836415 284.047323 
z
" clip-path="url(#p3e6528c168)" style="fill: #f2ab15; stroke: #ffffff"/>
    <path d="M 255.398224 273.661135 
C 256.801547 273.661135 258.147583 273.103589 259.139882 272.11129 
C 260.132181 271.118991 260.689727 269.772956 260.689727 268.369633 
C 260.689727 266.96631 260.132181 265.620274 259.139882 264.627975 
C 258.147583 263.635676 256.801547 263.07813 255.398224 263.07813 
C 253.994901 263.07813 252.648866 263.635676 251.656567 264.627975 
C 250.664268 265.620274 250.106722 266.96631 250.106722 268.369633 
C 250.106722 269.772956 250.664268 271.118991 251.656567 272.11129 
C 252.648866 273.103589 253.994901 273.661135 255.398224 273.661135 
z
" clip-path="url(#p3e6528c168)" style="fill: #f2ab15; stroke: #ffffff"/>
    <path d="M 283.265914 282.7717 
C 285.232713 282.7717 287.119221 281.990283 288.509958 280.599546 
C 289.900695 279.208809 290.682112 277.322301 290.682112 275.355502 
C 290.682112 273.388703 289.900695 271.502194 288.509958 270.111458 
C 287.119221 268.720721 285.232713 267.939303 283.265914 267.939303 
C 281.299115 267.939303 279.412606 268.720721 278.02187 270.111458 
C 276.631133 271.502194 275.849715 273.388703 275.849715 275.355502 
C 275.849715 277.322301 276.631133 279.208809 278.02187 280.599546 
C 279.412606 281.990283 281.299115 282.7717 283.265914 282.7717 
z
" clip-path="url(#p3e6528c168)" style="fill: #f2ab15; stroke: #ffffff"/>
    <path d="M 813.455541 70.928627 
C 814.508033 70.928627 815.51756 70.510467 816.261784 69.766243 
C 817.006008 69.022019 817.424168 68.012492 817.424168 66.96 
C 817.424168 65.907508 817.006008 64.897981 816.261784 64.153757 
C 815.51756 63.409533 814.508033 62.991373 813.455541 62.991373 
C 812.403049 62.991373 811.393522 63.409533 810.649298 64.153757 
C 809.905074 64.897981 809.486914 65.907508 809.486914 66.96 
C 809.486914 68.012492 809.905074 69.022019 810.649298 69.766243 
C 811.393522 70.510467 812.403049 70.928627 813.455541 70.928627 
z
" clip-path="url(#p3e6528c168)" style="fill: #f2ab15; stroke: #ffffff"/>
    <path d="M 304.771634 371.86 
C 305.434642 371.86 306.070584 371.596584 306.539401 371.127767 
C 307.008219 370.65895 307.271634 370.023008 307.271634 369.36 
C 307.271634 368.696992 307.008219 368.06105 306.539401 367.592233 
C 306.070584 367.123416 305.434642 366.86 304.771634 366.86 
C 304.108627 366.86 303.472685 367.123416 303.003868 367.592233 
C 302.53505 368.06105 302.271634 368.696992 302.271634 369.36 
C 302.271634 370.023008 302.53505 370.65895 303.003868 371.127767 
C 303.472685 371.596584 304.108627 371.86 304.771634 371.86 
z
" clip-path="url(#p3e6528c168)" style="fill: #f2ab15; stroke: #ffffff"/>
    <path d="M 688.334485 146.94517 
C 689.787062 146.94517 691.180341 146.368055 692.207468 145.340928 
C 693.234595 144.313801 693.81171 142.920522 693.81171 141.467944 
C 693.81171 140.015367 693.234595 138.622088 692.207468 137.594961 
C 691.180341 136.567834 689.787062 135.990719 688.334485 135.990719 
C 686.881908 135.990719 685.488629 136.567834 684.461501 137.594961 
C 683.434374 138.622088 682.857259 140.015367 682.857259 141.467944 
C 682.857259 142.920522 683.434374 144.313801 684.461501 145.340928 
C 685.488629 146.368055 686.881908 146.94517 688.334485 146.94517 
z
" clip-path="url(#p3e6528c168)" style="fill: #f2ab15; stroke: #ffffff"/>
    <path d="M 629.244579 178.958167 
C 631.59054 178.958167 633.840732 178.026107 635.499577 176.367262 
C 637.158422 174.708417 638.090482 172.458225 638.090482 170.112264 
C 638.090482 167.766303 637.158422 165.516111 635.499577 163.857266 
C 633.840732 162.198421 631.59054 161.266361 629.244579 161.266361 
C 626.898618 161.266361 624.648426 162.198421 622.989581 163.857266 
C 621.330736 165.516111 620.398676 167.766303 620.398676 170.112264 
C 620.398676 172.458225 621.330736 174.708417 622.989581 176.367262 
C 624.648426 178.026107 626.898618 178.958167 629.244579 178.958167 
z
" clip-path="url(#p3e6528c168)" style="fill: #f2ab15; stroke: #ffffff"/>
    <path d="M 871.690909 129.056329 
C 872.312865 129.056329 872.909432 128.809223 873.349221 128.369434 
C 873.789011 127.929644 874.036117 127.333078 874.036117 126.711121 
C 874.036117 126.089165 873.789011 125.492598 873.349221 125.052809 
C 872.909432 124.613019 872.312865 124.365913 871.690909 124.365913 
C 871.068953 124.365913 870.472386 124.613019 870.032597 125.052809 
C 869.592807 125.492598 869.345701 126.089165 869.345701 126.711121 
C 869.345701 127.333078 869.592807 127.929644 870.032597 128.369434 
C 870.472386 128.809223 871.068953 129.056329 871.690909 129.056329 
z
" clip-path="url(#p3e6528c168)" style="fill: #f2ab15; stroke: #ffffff"/>
    <path d="M 691.698718 142.25988 
C 692.578297 142.25988 693.42197 141.91042 694.043926 141.288463 
C 694.665882 140.666507 695.015343 139.822835 695.015343 138.943255 
C 695.015343 138.063676 694.665882 137.220004 694.043926 136.598048 
C 693.42197 135.976091 692.578297 135.626631 691.698718 135.626631 
C 690.819139 135.626631 689.975467 135.976091 689.35351 136.598048 
C 688.731554 137.220004 688.382093 138.063676 688.382093 138.943255 
C 688.382093 139.822835 688.731554 140.666507 689.35351 141.288463 
C 689.975467 141.91042 690.819139 142.25988 691.698718 142.25988 
z
" clip-path="url(#p3e6528c168)" style="fill: #f2ab15; stroke: #ffffff"/>
    <path d="M 734.014888 267.62265 
C 734.691026 267.62265 735.339562 267.354017 735.817664 266.875915 
C 736.295766 266.397814 736.564398 265.749278 736.564398 265.07314 
C 736.564398 264.397002 736.295766 263.748466 735.817664 263.270364 
C 735.339562 262.792263 734.691026 262.52363 734.014888 262.52363 
C 733.33875 262.52363 732.690214 262.792263 732.212113 263.270364 
C 731.734011 263.748466 731.465379 264.397002 731.465379 265.07314 
C 731.465379 265.749278 731.734011 266.397814 732.212113 266.875915 
C 732.690214 267.354017 733.33875 267.62265 734.014888 267.62265 
z
" clip-path="url(#p3e6528c168)" style="fill: #f2ab15; stroke: #ffffff"/>
    <path d="M 783.804199 135.660055 
C 784.440134 135.660055 785.050108 135.407395 785.499782 134.957721 
C 785.949455 134.508048 786.202115 133.898074 786.202115 133.262139 
C 786.202115 132.626204 785.949455 132.01623 785.499782 131.566556 
C 785.050108 131.116883 784.440134 130.864223 783.804199 130.864223 
C 783.168264 130.864223 782.55829 131.116883 782.108617 131.566556 
C 781.658943 132.01623 781.406283 132.626204 781.406283 133.262139 
C 781.406283 133.898074 781.658943 134.508048 782.108617 134.957721 
C 782.55829 135.407395 783.168264 135.660055 783.804199 135.660055 
z
" clip-path="url(#p3e6528c168)" style="fill: #f2ab15; stroke: #ffffff"/>
   </g>
   <g id="matplotlib.axis_1">
    <g id="xtick_1">
     <g id="line2d_1">
      <defs>
       <path id="m281ecf6e12" d="M 0 0 
L 0 3.5 
" style="stroke: #000000; stroke-width: 0.8"/>
      </defs>
      <g>
       <use xlink:href="#m281ecf6e12" x="415.382276" y="384.48" style="stroke: #000000; stroke-width: 0.8"/>
      </g>
     </g>
     <g id="text_1">
      <!-- $\mathdefault{10^{7}}$ -->
      <g transform="translate(406.582276 399.078438) scale(0.1 -0.1)">
       <defs>
        <path id="DejaVuSans-31" d="M 794 531 
L 1825 531 
L 1825 4091 
L 703 3866 
L 703 4441 
L 1819 4666 
L 2450 4666 
L 2450 531 
L 3481 531 
L 3481 0 
L 794 0 
L 794 531 
z
" transform="scale(0.015625)"/>
        <path id="DejaVuSans-30" d="M 2034 4250 
Q 1547 4250 1301 3770 
Q 1056 3291 1056 2328 
Q 1056 1369 1301 889 
Q 1547 409 2034 409 
Q 2525 409 2770 889 
Q 3016 1369 3016 2328 
Q 3016 3291 2770 3770 
Q 2525 4250 2034 4250 
z
M 2034 4750 
Q 2819 4750 3233 4129 
Q 3647 3509 3647 2328 
Q 3647 1150 3233 529 
Q 2819 -91 2034 -91 
Q 1250 -91 836 529 
Q 422 1150 422 2328 
Q 422 3509 836 4129 
Q 1250 4750 2034 4750 
z
" transform="scale(0.015625)"/>
        <path id="DejaVuSans-37" d="M 525 4666 
L 3525 4666 
L 3525 4397 
L 1831 0 
L 1172 0 
L 2766 4134 
L 525 4134 
L 525 4666 
z
" transform="scale(0.015625)"/>
       </defs>
       <use xlink:href="#DejaVuSans-31" transform="translate(0 0.684375)"/>
       <use xlink:href="#DejaVuSans-30" transform="translate(63.623047 0.684375)"/>
       <use xlink:href="#DejaVuSans-37" transform="translate(128.203125 38.965625) scale(0.7)"/>
      </g>
     </g>
    </g>
    <g id="xtick_2">
     <g id="line2d_2">
      <g>
       <use xlink:href="#m281ecf6e12" x="721.35006" y="384.48" style="stroke: #000000; stroke-width: 0.8"/>
      </g>
     </g>
     <g id="text_2">
      <!-- $\mathdefault{10^{8}}$ -->
      <g transform="translate(712.55006 399.078438) scale(0.1 -0.1)">
       <defs>
        <path id="DejaVuSans-38" d="M 2034 2216 
Q 1584 2216 1326 1975 
Q 1069 1734 1069 1313 
Q 1069 891 1326 650 
Q 1584 409 2034 409 
Q 2484 409 2743 651 
Q 3003 894 3003 1313 
Q 3003 1734 2745 1975 
Q 2488 2216 2034 2216 
z
M 1403 2484 
Q 997 2584 770 2862 
Q 544 3141 544 3541 
Q 544 4100 942 4425 
Q 1341 4750 2034 4750 
Q 2731 4750 3128 4425 
Q 3525 4100 3525 3541 
Q 3525 3141 3298 2862 
Q 3072 2584 2669 2484 
Q 3125 2378 3379 2068 
Q 3634 1759 3634 1313 
Q 3634 634 3220 271 
Q 2806 -91 2034 -91 
Q 1263 -91 848 271 
Q 434 634 434 1313 
Q 434 1759 690 2068 
Q 947 2378 1403 2484 
z
M 1172 3481 
Q 1172 3119 1398 2916 
Q 1625 2713 2034 2713 
Q 2441 2713 2670 2916 
Q 2900 3119 2900 3481 
Q 2900 3844 2670 4047 
Q 2441 4250 2034 4250 
Q 1625 4250 1398 4047 
Q 1172 3844 1172 3481 
z
" transform="scale(0.015625)"/>
       </defs>
       <use xlink:href="#DejaVuSans-31" transform="translate(0 0.765625)"/>
       <use xlink:href="#DejaVuSans-30" transform="translate(63.623047 0.765625)"/>
       <use xlink:href="#DejaVuSans-38" transform="translate(128.203125 39.046875) scale(0.7)"/>
      </g>
     </g>
    </g>
    <g id="xtick_3">
     <g id="line2d_3">
      <defs>
       <path id="m91b89941f7" d="M 0 0 
L 0 2 
" style="stroke: #000000; stroke-width: 0.6"/>
      </defs>
      <g>
       <use xlink:href="#m91b89941f7" x="201.519972" y="384.48" style="stroke: #000000; stroke-width: 0.6"/>
      </g>
     </g>
    </g>
    <g id="xtick_4">
     <g id="line2d_4">
      <g>
       <use xlink:href="#m91b89941f7" x="255.398224" y="384.48" style="stroke: #000000; stroke-width: 0.6"/>
      </g>
     </g>
    </g>
    <g id="xtick_5">
     <g id="line2d_5">
      <g>
       <use xlink:href="#m91b89941f7" x="293.625453" y="384.48" style="stroke: #000000; stroke-width: 0.6"/>
      </g>
     </g>
    </g>
    <g id="xtick_6">
     <g id="line2d_6">
      <g>
       <use xlink:href="#m91b89941f7" x="323.276795" y="384.48" style="stroke: #000000; stroke-width: 0.6"/>
      </g>
     </g>
    </g>
    <g id="xtick_7">
     <g id="line2d_7">
      <g>
       <use xlink:href="#m91b89941f7" x="347.503705" y="384.48" style="stroke: #000000; stroke-width: 0.6"/>
      </g>
     </g>
    </g>
    <g id="xtick_8">
     <g id="line2d_8">
      <g>
       <use xlink:href="#m91b89941f7" x="367.987266" y="384.48" style="stroke: #000000; stroke-width: 0.6"/>
      </g>
     </g>
    </g>
    <g id="xtick_9">
     <g id="line2d_9">
      <g>
       <use xlink:href="#m91b89941f7" x="385.730934" y="384.48" style="stroke: #000000; stroke-width: 0.6"/>
      </g>
     </g>
    </g>
    <g id="xtick_10">
     <g id="line2d_10">
      <g>
       <use xlink:href="#m91b89941f7" x="401.381958" y="384.48" style="stroke: #000000; stroke-width: 0.6"/>
      </g>
     </g>
    </g>
    <g id="xtick_11">
     <g id="line2d_11">
      <g>
       <use xlink:href="#m91b89941f7" x="507.487756" y="384.48" style="stroke: #000000; stroke-width: 0.6"/>
      </g>
     </g>
    </g>
    <g id="xtick_12">
     <g id="line2d_12">
      <g>
       <use xlink:href="#m91b89941f7" x="561.366009" y="384.48" style="stroke: #000000; stroke-width: 0.6"/>
      </g>
     </g>
    </g>
    <g id="xtick_13">
     <g id="line2d_13">
      <g>
       <use xlink:href="#m91b89941f7" x="599.593237" y="384.48" style="stroke: #000000; stroke-width: 0.6"/>
      </g>
     </g>
    </g>
    <g id="xtick_14">
     <g id="line2d_14">
      <g>
       <use xlink:href="#m91b89941f7" x="629.244579" y="384.48" style="stroke: #000000; stroke-width: 0.6"/>
      </g>
     </g>
    </g>
    <g id="xtick_15">
     <g id="line2d_15">
      <g>
       <use xlink:href="#m91b89941f7" x="653.47149" y="384.48" style="stroke: #000000; stroke-width: 0.6"/>
      </g>
     </g>
    </g>
    <g id="xtick_16">
     <g id="line2d_16">
      <g>
       <use xlink:href="#m91b89941f7" x="673.955051" y="384.48" style="stroke: #000000; stroke-width: 0.6"/>
      </g>
     </g>
    </g>
    <g id="xtick_17">
     <g id="line2d_17">
      <g>
       <use xlink:href="#m91b89941f7" x="691.698718" y="384.48" style="stroke: #000000; stroke-width: 0.6"/>
      </g>
     </g>
    </g>
    <g id="xtick_18">
     <g id="line2d_18">
      <g>
       <use xlink:href="#m91b89941f7" x="707.349742" y="384.48" style="stroke: #000000; stroke-width: 0.6"/>
      </g>
     </g>
    </g>
    <g id="xtick_19">
     <g id="line2d_19">
      <g>
       <use xlink:href="#m91b89941f7" x="813.455541" y="384.48" style="stroke: #000000; stroke-width: 0.6"/>
      </g>
     </g>
    </g>
    <g id="xtick_20">
     <g id="line2d_20">
      <g>
       <use xlink:href="#m91b89941f7" x="867.333793" y="384.48" style="stroke: #000000; stroke-width: 0.6"/>
      </g>
     </g>
    </g>
    <g id="xtick_21">
     <g id="line2d_21">
      <g>
       <use xlink:href="#m91b89941f7" x="905.561022" y="384.48" style="stroke: #000000; stroke-width: 0.6"/>
      </g>
     </g>
    </g>
    <g id="text_3">
     <!-- Budget -->
     <g transform="translate(498.615625 412.756563) scale(0.1 -0.1)">
      <defs>
       <path id="DejaVuSans-42" d="M 1259 2228 
L 1259 519 
L 2272 519 
Q 2781 519 3026 730 
Q 3272 941 3272 1375 
Q 3272 1813 3026 2020 
Q 2781 2228 2272 2228 
L 1259 2228 
z
M 1259 4147 
L 1259 2741 
L 2194 2741 
Q 2656 2741 2882 2914 
Q 3109 3088 3109 3444 
Q 3109 3797 2882 3972 
Q 2656 4147 2194 4147 
L 1259 4147 
z
M 628 4666 
L 2241 4666 
Q 2963 4666 3353 4366 
Q 3744 4066 3744 3513 
Q 3744 3084 3544 2831 
Q 3344 2578 2956 2516 
Q 3422 2416 3680 2098 
Q 3938 1781 3938 1306 
Q 3938 681 3513 340 
Q 3088 0 2303 0 
L 628 0 
L 628 4666 
z
" transform="scale(0.015625)"/>
       <path id="DejaVuSans-75" d="M 544 1381 
L 544 3500 
L 1119 3500 
L 1119 1403 
Q 1119 906 1312 657 
Q 1506 409 1894 409 
Q 2359 409 2629 706 
Q 2900 1003 2900 1516 
L 2900 3500 
L 3475 3500 
L 3475 0 
L 2900 0 
L 2900 538 
Q 2691 219 2414 64 
Q 2138 -91 1772 -91 
Q 1169 -91 856 284 
Q 544 659 544 1381 
z
M 1991 3584 
L 1991 3584 
z
" transform="scale(0.015625)"/>
       <path id="DejaVuSans-64" d="M 2906 2969 
L 2906 4863 
L 3481 4863 
L 3481 0 
L 2906 0 
L 2906 525 
Q 2725 213 2448 61 
Q 2172 -91 1784 -91 
Q 1150 -91 751 415 
Q 353 922 353 1747 
Q 353 2572 751 3078 
Q 1150 3584 1784 3584 
Q 2172 3584 2448 3432 
Q 2725 3281 2906 2969 
z
M 947 1747 
Q 947 1113 1208 752 
Q 1469 391 1925 391 
Q 2381 391 2643 752 
Q 2906 1113 2906 1747 
Q 2906 2381 2643 2742 
Q 2381 3103 1925 3103 
Q 1469 3103 1208 2742 
Q 947 2381 947 1747 
z
" transform="scale(0.015625)"/>
       <path id="DejaVuSans-67" d="M 2906 1791 
Q 2906 2416 2648 2759 
Q 2391 3103 1925 3103 
Q 1463 3103 1205 2759 
Q 947 2416 947 1791 
Q 947 1169 1205 825 
Q 1463 481 1925 481 
Q 2391 481 2648 825 
Q 2906 1169 2906 1791 
z
M 3481 434 
Q 3481 -459 3084 -895 
Q 2688 -1331 1869 -1331 
Q 1566 -1331 1297 -1286 
Q 1028 -1241 775 -1147 
L 775 -588 
Q 1028 -725 1275 -790 
Q 1522 -856 1778 -856 
Q 2344 -856 2625 -561 
Q 2906 -266 2906 331 
L 2906 616 
Q 2728 306 2450 153 
Q 2172 0 1784 0 
Q 1141 0 747 490 
Q 353 981 353 1791 
Q 353 2603 747 3093 
Q 1141 3584 1784 3584 
Q 2172 3584 2450 3431 
Q 2728 3278 2906 2969 
L 2906 3500 
L 3481 3500 
L 3481 434 
z
" transform="scale(0.015625)"/>
       <path id="DejaVuSans-65" d="M 3597 1894 
L 3597 1613 
L 953 1613 
Q 991 1019 1311 708 
Q 1631 397 2203 397 
Q 2534 397 2845 478 
Q 3156 559 3463 722 
L 3463 178 
Q 3153 47 2828 -22 
Q 2503 -91 2169 -91 
Q 1331 -91 842 396 
Q 353 884 353 1716 
Q 353 2575 817 3079 
Q 1281 3584 2069 3584 
Q 2775 3584 3186 3129 
Q 3597 2675 3597 1894 
z
M 3022 2063 
Q 3016 2534 2758 2815 
Q 2500 3097 2075 3097 
Q 1594 3097 1305 2825 
Q 1016 2553 972 2059 
L 3022 2063 
z
" transform="scale(0.015625)"/>
       <path id="DejaVuSans-74" d="M 1172 4494 
L 1172 3500 
L 2356 3500 
L 2356 3053 
L 1172 3053 
L 1172 1153 
Q 1172 725 1289 603 
Q 1406 481 1766 481 
L 2356 481 
L 2356 0 
L 1766 0 
Q 1100 0 847 248 
Q 594 497 594 1153 
L 594 3053 
L 172 3053 
L 172 3500 
L 594 3500 
L 594 4494 
L 1172 4494 
z
" transform="scale(0.015625)"/>
      </defs>
      <use xlink:href="#DejaVuSans-42"/>
      <use xlink:href="#DejaVuSans-75" x="68.603516"/>
      <use xlink:href="#DejaVuSans-64" x="131.982422"/>
      <use xlink:href="#DejaVuSans-67" x="195.458984"/>
      <use xlink:href="#DejaVuSans-65" x="258.935547"/>
      <use xlink:href="#DejaVuSans-74" x="320.458984"/>
     </g>
    </g>
   </g>
   <g id="matplotlib.axis_2">
    <g id="ytick_1">
     <g id="line2d_22">
      <defs>
       <path id="m873876553e" d="M 0 0 
L -3.5 0 
" style="stroke: #000000; stroke-width: 0.8"/>
      </defs>
      <g>
       <use xlink:href="#m873876553e" x="126" y="301.310121" style="stroke: #000000; stroke-width: 0.8"/>
      </g>
     </g>
     <g id="text_4">
      <!-- $\mathdefault{10^{7}}$ -->
      <g transform="translate(101.4 305.10934) scale(0.1 -0.1)">
       <use xlink:href="#DejaVuSans-31" transform="translate(0 0.684375)"/>
       <use xlink:href="#DejaVuSans-30" transform="translate(63.623047 0.684375)"/>
       <use xlink:href="#DejaVuSans-37" transform="translate(128.203125 38.965625) scale(0.7)"/>
      </g>
     </g>
    </g>
    <g id="ytick_2">
     <g id="line2d_23">
      <g>
       <use xlink:href="#m873876553e" x="126" y="196.227853" style="stroke: #000000; stroke-width: 0.8"/>
      </g>
     </g>
     <g id="text_5">
      <!-- $\mathdefault{10^{8}}$ -->
      <g transform="translate(101.4 200.027072) scale(0.1 -0.1)">
       <use xlink:href="#DejaVuSans-31" transform="translate(0 0.765625)"/>
       <use xlink:href="#DejaVuSans-30" transform="translate(63.623047 0.765625)"/>
       <use xlink:href="#DejaVuSans-38" transform="translate(128.203125 39.046875) scale(0.7)"/>
      </g>
     </g>
    </g>
    <g id="ytick_3">
     <g id="line2d_24">
      <g>
       <use xlink:href="#m873876553e" x="126" y="91.145584" style="stroke: #000000; stroke-width: 0.8"/>
      </g>
     </g>
     <g id="text_6">
      <!-- $\mathdefault{10^{9}}$ -->
      <g transform="translate(101.4 94.944803) scale(0.1 -0.1)">
       <defs>
        <path id="DejaVuSans-39" d="M 703 97 
L 703 672 
Q 941 559 1184 500 
Q 1428 441 1663 441 
Q 2288 441 2617 861 
Q 2947 1281 2994 2138 
Q 2813 1869 2534 1725 
Q 2256 1581 1919 1581 
Q 1219 1581 811 2004 
Q 403 2428 403 3163 
Q 403 3881 828 4315 
Q 1253 4750 1959 4750 
Q 2769 4750 3195 4129 
Q 3622 3509 3622 2328 
Q 3622 1225 3098 567 
Q 2575 -91 1691 -91 
Q 1453 -91 1209 -44 
Q 966 3 703 97 
z
M 1959 2075 
Q 2384 2075 2632 2365 
Q 2881 2656 2881 3163 
Q 2881 3666 2632 3958 
Q 2384 4250 1959 4250 
Q 1534 4250 1286 3958 
Q 1038 3666 1038 3163 
Q 1038 2656 1286 2365 
Q 1534 2075 1959 2075 
z
" transform="scale(0.015625)"/>
       </defs>
       <use xlink:href="#DejaVuSans-31" transform="translate(0 0.765625)"/>
       <use xlink:href="#DejaVuSans-30" transform="translate(63.623047 0.765625)"/>
       <use xlink:href="#DejaVuSans-39" transform="translate(128.203125 39.046875) scale(0.7)"/>
      </g>
     </g>
    </g>
    <g id="ytick_4">
     <g id="line2d_25">
      <defs>
       <path id="me44d096670" d="M 0 0 
L -2 0 
" style="stroke: #000000; stroke-width: 0.6"/>
      </defs>
      <g>
       <use xlink:href="#me44d096670" x="126" y="374.759475" style="stroke: #000000; stroke-width: 0.6"/>
      </g>
     </g>
    </g>
    <g id="ytick_5">
     <g id="line2d_26">
      <g>
       <use xlink:href="#me44d096670" x="126" y="356.255406" style="stroke: #000000; stroke-width: 0.6"/>
      </g>
     </g>
    </g>
    <g id="ytick_6">
     <g id="line2d_27">
      <g>
       <use xlink:href="#me44d096670" x="126" y="343.12656" style="stroke: #000000; stroke-width: 0.6"/>
      </g>
     </g>
    </g>
    <g id="ytick_7">
     <g id="line2d_28">
      <g>
       <use xlink:href="#me44d096670" x="126" y="332.943036" style="stroke: #000000; stroke-width: 0.6"/>
      </g>
     </g>
    </g>
    <g id="ytick_8">
     <g id="line2d_29">
      <g>
       <use xlink:href="#me44d096670" x="126" y="324.622491" style="stroke: #000000; stroke-width: 0.6"/>
      </g>
     </g>
    </g>
    <g id="ytick_9">
     <g id="line2d_30">
      <g>
       <use xlink:href="#me44d096670" x="126" y="317.587571" style="stroke: #000000; stroke-width: 0.6"/>
      </g>
     </g>
    </g>
    <g id="ytick_10">
     <g id="line2d_31">
      <g>
       <use xlink:href="#me44d096670" x="126" y="311.493645" style="stroke: #000000; stroke-width: 0.6"/>
      </g>
     </g>
    </g>
    <g id="ytick_11">
     <g id="line2d_32">
      <g>
       <use xlink:href="#me44d096670" x="126" y="306.118422" style="stroke: #000000; stroke-width: 0.6"/>
      </g>
     </g>
    </g>
    <g id="ytick_12">
     <g id="line2d_33">
      <g>
       <use xlink:href="#me44d096670" x="126" y="269.677207" style="stroke: #000000; stroke-width: 0.6"/>
      </g>
     </g>
    </g>
    <g id="ytick_13">
     <g id="line2d_34">
      <g>
       <use xlink:href="#me44d096670" x="126" y="251.173138" style="stroke: #000000; stroke-width: 0.6"/>
      </g>
     </g>
    </g>
    <g id="ytick_14">
     <g id="line2d_35">
      <g>
       <use xlink:href="#me44d096670" x="126" y="238.044292" style="stroke: #000000; stroke-width: 0.6"/>
      </g>
     </g>
    </g>
    <g id="ytick_15">
     <g id="line2d_36">
      <g>
       <use xlink:href="#me44d096670" x="126" y="227.860768" style="stroke: #000000; stroke-width: 0.6"/>
      </g>
     </g>
    </g>
    <g id="ytick_16">
     <g id="line2d_37">
      <g>
       <use xlink:href="#me44d096670" x="126" y="219.540223" style="stroke: #000000; stroke-width: 0.6"/>
      </g>
     </g>
    </g>
    <g id="ytick_17">
     <g id="line2d_38">
      <g>
       <use xlink:href="#me44d096670" x="126" y="212.505302" style="stroke: #000000; stroke-width: 0.6"/>
      </g>
     </g>
    </g>
    <g id="ytick_18">
     <g id="line2d_39">
      <g>
       <use xlink:href="#me44d096670" x="126" y="206.411377" style="stroke: #000000; stroke-width: 0.6"/>
      </g>
     </g>
    </g>
    <g id="ytick_19">
     <g id="line2d_40">
      <g>
       <use xlink:href="#me44d096670" x="126" y="201.036154" style="stroke: #000000; stroke-width: 0.6"/>
      </g>
     </g>
    </g>
    <g id="ytick_20">
     <g id="line2d_41">
      <g>
       <use xlink:href="#me44d096670" x="126" y="164.594938" style="stroke: #000000; stroke-width: 0.6"/>
      </g>
     </g>
    </g>
    <g id="ytick_21">
     <g id="line2d_42">
      <g>
       <use xlink:href="#me44d096670" x="126" y="146.090869" style="stroke: #000000; stroke-width: 0.6"/>
      </g>
     </g>
    </g>
    <g id="ytick_22">
     <g id="line2d_43">
      <g>
       <use xlink:href="#me44d096670" x="126" y="132.962023" style="stroke: #000000; stroke-width: 0.6"/>
      </g>
     </g>
    </g>
    <g id="ytick_23">
     <g id="line2d_44">
      <g>
       <use xlink:href="#me44d096670" x="126" y="122.778499" style="stroke: #000000; stroke-width: 0.6"/>
      </g>
     </g>
    </g>
    <g id="ytick_24">
     <g id="line2d_45">
      <g>
       <use xlink:href="#me44d096670" x="126" y="114.457954" style="stroke: #000000; stroke-width: 0.6"/>
      </g>
     </g>
    </g>
    <g id="ytick_25">
     <g id="line2d_46">
      <g>
       <use xlink:href="#me44d096670" x="126" y="107.423034" style="stroke: #000000; stroke-width: 0.6"/>
      </g>
     </g>
    </g>
    <g id="ytick_26">
     <g id="line2d_47">
      <g>
       <use xlink:href="#me44d096670" x="126" y="101.329108" style="stroke: #000000; stroke-width: 0.6"/>
      </g>
     </g>
    </g>
    <g id="ytick_27">
     <g id="line2d_48">
      <g>
       <use xlink:href="#me44d096670" x="126" y="95.953885" style="stroke: #000000; stroke-width: 0.6"/>
      </g>
     </g>
    </g>
    <g id="ytick_28">
     <g id="line2d_49">
      <g>
       <use xlink:href="#me44d096670" x="126" y="59.512669" style="stroke: #000000; stroke-width: 0.6"/>
      </g>
     </g>
    </g>
    <g id="text_7">
     <!-- Revenue -->
     <g transform="translate(95.320312 239.935781) rotate(-90) scale(0.1 -0.1)">
      <defs>
       <path id="DejaVuSans-52" d="M 2841 2188 
Q 3044 2119 3236 1894 
Q 3428 1669 3622 1275 
L 4263 0 
L 3584 0 
L 2988 1197 
Q 2756 1666 2539 1819 
Q 2322 1972 1947 1972 
L 1259 1972 
L 1259 0 
L 628 0 
L 628 4666 
L 2053 4666 
Q 2853 4666 3247 4331 
Q 3641 3997 3641 3322 
Q 3641 2881 3436 2590 
Q 3231 2300 2841 2188 
z
M 1259 4147 
L 1259 2491 
L 2053 2491 
Q 2509 2491 2742 2702 
Q 2975 2913 2975 3322 
Q 2975 3731 2742 3939 
Q 2509 4147 2053 4147 
L 1259 4147 
z
" transform="scale(0.015625)"/>
       <path id="DejaVuSans-76" d="M 191 3500 
L 800 3500 
L 1894 563 
L 2988 3500 
L 3597 3500 
L 2284 0 
L 1503 0 
L 191 3500 
z
" transform="scale(0.015625)"/>
       <path id="DejaVuSans-6e" d="M 3513 2113 
L 3513 0 
L 2938 0 
L 2938 2094 
Q 2938 2591 2744 2837 
Q 2550 3084 2163 3084 
Q 1697 3084 1428 2787 
Q 1159 2491 1159 1978 
L 1159 0 
L 581 0 
L 581 3500 
L 1159 3500 
L 1159 2956 
Q 1366 3272 1645 3428 
Q 1925 3584 2291 3584 
Q 2894 3584 3203 3211 
Q 3513 2838 3513 2113 
z
" transform="scale(0.015625)"/>
      </defs>
      <use xlink:href="#DejaVuSans-52"/>
      <use xlink:href="#DejaVuSans-65" x="64.982422"/>
      <use xlink:href="#DejaVuSans-76" x="126.505859"/>
      <use xlink:href="#DejaVuSans-65" x="185.685547"/>
      <use xlink:href="#DejaVuSans-6e" x="247.208984"/>
      <use xlink:href="#DejaVuSans-75" x="310.587891"/>
      <use xlink:href="#DejaVuSans-65" x="373.966797"/>
     </g>
    </g>
   </g>
   <g id="patch_3">
    <path d="M 126 384.48 
L 126 51.84 
" style="fill: none; stroke: #000000; stroke-width: 0.8; stroke-linejoin: miter; stroke-linecap: square"/>
   </g>
   <g id="patch_4">
    <path d="M 126 384.48 
L 907.2 384.48 
" style="fill: none; stroke: #000000; stroke-width: 0.8; stroke-linejoin: miter; stroke-linecap: square"/>
   </g>
   <g id="text_8">
    <!-- Anora -->
    <g transform="translate(335.68933 224.522667) scale(0.08 -0.08)">
     <defs>
      <path id="DejaVuSans-41" d="M 2188 4044 
L 1331 1722 
L 3047 1722 
L 2188 4044 
z
M 1831 4666 
L 2547 4666 
L 4325 0 
L 3669 0 
L 3244 1197 
L 1141 1197 
L 716 0 
L 50 0 
L 1831 4666 
z
" transform="scale(0.015625)"/>
      <path id="DejaVuSans-6f" d="M 1959 3097 
Q 1497 3097 1228 2736 
Q 959 2375 959 1747 
Q 959 1119 1226 758 
Q 1494 397 1959 397 
Q 2419 397 2687 759 
Q 2956 1122 2956 1747 
Q 2956 2369 2687 2733 
Q 2419 3097 1959 3097 
z
M 1959 3584 
Q 2709 3584 3137 3096 
Q 3566 2609 3566 1747 
Q 3566 888 3137 398 
Q 2709 -91 1959 -91 
Q 1206 -91 779 398 
Q 353 888 353 1747 
Q 353 2609 779 3096 
Q 1206 3584 1959 3584 
z
" transform="scale(0.015625)"/>
      <path id="DejaVuSans-72" d="M 2631 2963 
Q 2534 3019 2420 3045 
Q 2306 3072 2169 3072 
Q 1681 3072 1420 2755 
Q 1159 2438 1159 1844 
L 1159 0 
L 581 0 
L 581 3500 
L 1159 3500 
L 1159 2956 
Q 1341 3275 1631 3429 
Q 1922 3584 2338 3584 
Q 2397 3584 2469 3576 
Q 2541 3569 2628 3553 
L 2631 2963 
z
" transform="scale(0.015625)"/>
      <path id="DejaVuSans-61" d="M 2194 1759 
Q 1497 1759 1228 1600 
Q 959 1441 959 1056 
Q 959 750 1161 570 
Q 1363 391 1709 391 
Q 2188 391 2477 730 
Q 2766 1069 2766 1631 
L 2766 1759 
L 2194 1759 
z
M 3341 1997 
L 3341 0 
L 2766 0 
L 2766 531 
Q 2569 213 2275 61 
Q 1981 -91 1556 -91 
Q 1019 -91 701 211 
Q 384 513 384 1019 
Q 384 1609 779 1909 
Q 1175 2209 1959 2209 
L 2766 2209 
L 2766 2266 
Q 2766 2663 2505 2880 
Q 2244 3097 1772 3097 
Q 1472 3097 1187 3025 
Q 903 2953 641 2809 
L 641 3341 
Q 956 3463 1253 3523 
Q 1550 3584 1831 3584 
Q 2591 3584 2966 3190 
Q 3341 2797 3341 1997 
z
" transform="scale(0.015625)"/>
     </defs>
     <use xlink:href="#DejaVuSans-41"/>
     <use xlink:href="#DejaVuSans-6e" x="68.408203"/>
     <use xlink:href="#DejaVuSans-6f" x="131.787109"/>
     <use xlink:href="#DejaVuSans-72" x="192.96875"/>
     <use xlink:href="#DejaVuSans-61" x="234.082031"/>
    </g>
   </g>
   <g id="text_9">
    <!-- The Brutalist -->
    <g transform="translate(375.853833 230.852115) scale(0.08 -0.08)">
     <defs>
      <path id="DejaVuSans-54" d="M -19 4666 
L 3928 4666 
L 3928 4134 
L 2272 4134 
L 2272 0 
L 1638 0 
L 1638 4134 
L -19 4134 
L -19 4666 
z
" transform="scale(0.015625)"/>
      <path id="DejaVuSans-68" d="M 3513 2113 
L 3513 0 
L 2938 0 
L 2938 2094 
Q 2938 2591 2744 2837 
Q 2550 3084 2163 3084 
Q 1697 3084 1428 2787 
Q 1159 2491 1159 1978 
L 1159 0 
L 581 0 
L 581 4863 
L 1159 4863 
L 1159 2956 
Q 1366 3272 1645 3428 
Q 1925 3584 2291 3584 
Q 2894 3584 3203 3211 
Q 3513 2838 3513 2113 
z
" transform="scale(0.015625)"/>
      <path id="DejaVuSans-20" transform="scale(0.015625)"/>
      <path id="DejaVuSans-6c" d="M 603 4863 
L 1178 4863 
L 1178 0 
L 603 0 
L 603 4863 
z
" transform="scale(0.015625)"/>
      <path id="DejaVuSans-69" d="M 603 3500 
L 1178 3500 
L 1178 0 
L 603 0 
L 603 3500 
z
M 603 4863 
L 1178 4863 
L 1178 4134 
L 603 4134 
L 603 4863 
z
" transform="scale(0.015625)"/>
      <path id="DejaVuSans-73" d="M 2834 3397 
L 2834 2853 
Q 2591 2978 2328 3040 
Q 2066 3103 1784 3103 
Q 1356 3103 1142 2972 
Q 928 2841 928 2578 
Q 928 2378 1081 2264 
Q 1234 2150 1697 2047 
L 1894 2003 
Q 2506 1872 2764 1633 
Q 3022 1394 3022 966 
Q 3022 478 2636 193 
Q 2250 -91 1575 -91 
Q 1294 -91 989 -36 
Q 684 19 347 128 
L 347 722 
Q 666 556 975 473 
Q 1284 391 1588 391 
Q 1994 391 2212 530 
Q 2431 669 2431 922 
Q 2431 1156 2273 1281 
Q 2116 1406 1581 1522 
L 1381 1569 
Q 847 1681 609 1914 
Q 372 2147 372 2553 
Q 372 3047 722 3315 
Q 1072 3584 1716 3584 
Q 2034 3584 2315 3537 
Q 2597 3491 2834 3397 
z
" transform="scale(0.015625)"/>
     </defs>
     <use xlink:href="#DejaVuSans-54"/>
     <use xlink:href="#DejaVuSans-68" x="61.083984"/>
     <use xlink:href="#DejaVuSans-65" x="124.462891"/>
     <use xlink:href="#DejaVuSans-20" x="185.986328"/>
     <use xlink:href="#DejaVuSans-42" x="217.773438"/>
     <use xlink:href="#DejaVuSans-72" x="286.376953"/>
     <use xlink:href="#DejaVuSans-75" x="327.490234"/>
     <use xlink:href="#DejaVuSans-74" x="390.869141"/>
     <use xlink:href="#DejaVuSans-61" x="430.078125"/>
     <use xlink:href="#DejaVuSans-6c" x="491.357422"/>
     <use xlink:href="#DejaVuSans-69" x="519.140625"/>
     <use xlink:href="#DejaVuSans-73" x="546.923828"/>
     <use xlink:href="#DejaVuSans-74" x="599.023438"/>
    </g>
   </g>
   <g id="text_10">
    <!-- Conclave -->
    <g transform="translate(489.121506 192.433218) scale(0.08 -0.08)">
     <defs>
      <path id="DejaVuSans-43" d="M 4122 4306 
L 4122 3641 
Q 3803 3938 3442 4084 
Q 3081 4231 2675 4231 
Q 1875 4231 1450 3742 
Q 1025 3253 1025 2328 
Q 1025 1406 1450 917 
Q 1875 428 2675 428 
Q 3081 428 3442 575 
Q 3803 722 4122 1019 
L 4122 359 
Q 3791 134 3420 21 
Q 3050 -91 2638 -91 
Q 1578 -91 968 557 
Q 359 1206 359 2328 
Q 359 3453 968 4101 
Q 1578 4750 2638 4750 
Q 3056 4750 3426 4639 
Q 3797 4528 4122 4306 
z
" transform="scale(0.015625)"/>
      <path id="DejaVuSans-63" d="M 3122 3366 
L 3122 2828 
Q 2878 2963 2633 3030 
Q 2388 3097 2138 3097 
Q 1578 3097 1268 2742 
Q 959 2388 959 1747 
Q 959 1106 1268 751 
Q 1578 397 2138 397 
Q 2388 397 2633 464 
Q 2878 531 3122 666 
L 3122 134 
Q 2881 22 2623 -34 
Q 2366 -91 2075 -91 
Q 1284 -91 818 406 
Q 353 903 353 1747 
Q 353 2603 823 3093 
Q 1294 3584 2113 3584 
Q 2378 3584 2631 3529 
Q 2884 3475 3122 3366 
z
" transform="scale(0.015625)"/>
     </defs>
     <use xlink:href="#DejaVuSans-43"/>
     <use xlink:href="#DejaVuSans-6f" x="69.824219"/>
     <use xlink:href="#DejaVuSans-6e" x="131.005859"/>
     <use xlink:href="#DejaVuSans-63" x="194.384766"/>
     <use xlink:href="#DejaVuSans-6c" x="249.365234"/>
     <use xlink:href="#DejaVuSans-61" x="277.148438"/>
     <use xlink:href="#DejaVuSans-76" x="338.427734"/>
     <use xlink:href="#DejaVuSans-65" x="397.607422"/>
    </g>
   </g>
   <g id="text_11">
    <!-- Dune: -->
    <g transform="translate(794.680932 104.21929) scale(0.08 -0.08)">
     <defs>
      <path id="DejaVuSans-44" d="M 1259 4147 
L 1259 519 
L 2022 519 
Q 2988 519 3436 956 
Q 3884 1394 3884 2338 
Q 3884 3275 3436 3711 
Q 2988 4147 2022 4147 
L 1259 4147 
z
M 628 4666 
L 1925 4666 
Q 3281 4666 3915 4102 
Q 4550 3538 4550 2338 
Q 4550 1131 3912 565 
Q 3275 0 1925 0 
L 628 0 
L 628 4666 
z
" transform="scale(0.015625)"/>
      <path id="DejaVuSans-3a" d="M 750 794 
L 1409 794 
L 1409 0 
L 750 0 
L 750 794 
z
M 750 3309 
L 1409 3309 
L 1409 2516 
L 750 2516 
L 750 3309 
z
" transform="scale(0.015625)"/>
     </defs>
     <use xlink:href="#DejaVuSans-44"/>
     <use xlink:href="#DejaVuSans-75" x="77.001953"/>
     <use xlink:href="#DejaVuSans-6e" x="140.380859"/>
     <use xlink:href="#DejaVuSans-65" x="203.759766"/>
     <use xlink:href="#DejaVuSans-3a" x="265.283203"/>
    </g>
    <!--  Part Two -->
    <g transform="translate(788.699682 113.17754) scale(0.08 -0.08)">
     <defs>
      <path id="DejaVuSans-50" d="M 1259 4147 
L 1259 2394 
L 2053 2394 
Q 2494 2394 2734 2622 
Q 2975 2850 2975 3272 
Q 2975 3691 2734 3919 
Q 2494 4147 2053 4147 
L 1259 4147 
z
M 628 4666 
L 2053 4666 
Q 2838 4666 3239 4311 
Q 3641 3956 3641 3272 
Q 3641 2581 3239 2228 
Q 2838 1875 2053 1875 
L 1259 1875 
L 1259 0 
L 628 0 
L 628 4666 
z
" transform="scale(0.015625)"/>
      <path id="DejaVuSans-77" d="M 269 3500 
L 844 3500 
L 1563 769 
L 2278 3500 
L 2956 3500 
L 3675 769 
L 4391 3500 
L 4966 3500 
L 4050 0 
L 3372 0 
L 2619 2869 
L 1863 0 
L 1184 0 
L 269 3500 
z
" transform="scale(0.015625)"/>
     </defs>
     <use xlink:href="#DejaVuSans-20"/>
     <use xlink:href="#DejaVuSans-50" x="31.787109"/>
     <use xlink:href="#DejaVuSans-61" x="87.589844"/>
     <use xlink:href="#DejaVuSans-72" x="148.869141"/>
     <use xlink:href="#DejaVuSans-74" x="189.982422"/>
     <use xlink:href="#DejaVuSans-20" x="229.191406"/>
     <use xlink:href="#DejaVuSans-54" x="260.978516"/>
     <use xlink:href="#DejaVuSans-77" x="305.5625"/>
     <use xlink:href="#DejaVuSans-6f" x="387.349609"/>
    </g>
   </g>
   <g id="text_12">
    <!-- Emilia Pérez -->
    <g transform="translate(518.027627 280.041908) scale(0.08 -0.08)">
     <defs>
      <path id="DejaVuSans-45" d="M 628 4666 
L 3578 4666 
L 3578 4134 
L 1259 4134 
L 1259 2753 
L 3481 2753 
L 3481 2222 
L 1259 2222 
L 1259 531 
L 3634 531 
L 3634 0 
L 628 0 
L 628 4666 
z
" transform="scale(0.015625)"/>
      <path id="DejaVuSans-6d" d="M 3328 2828 
Q 3544 3216 3844 3400 
Q 4144 3584 4550 3584 
Q 5097 3584 5394 3201 
Q 5691 2819 5691 2113 
L 5691 0 
L 5113 0 
L 5113 2094 
Q 5113 2597 4934 2840 
Q 4756 3084 4391 3084 
Q 3944 3084 3684 2787 
Q 3425 2491 3425 1978 
L 3425 0 
L 2847 0 
L 2847 2094 
Q 2847 2600 2669 2842 
Q 2491 3084 2119 3084 
Q 1678 3084 1418 2786 
Q 1159 2488 1159 1978 
L 1159 0 
L 581 0 
L 581 3500 
L 1159 3500 
L 1159 2956 
Q 1356 3278 1631 3431 
Q 1906 3584 2284 3584 
Q 2666 3584 2933 3390 
Q 3200 3197 3328 2828 
z
" transform="scale(0.015625)"/>
      <path id="DejaVuSans-e9" d="M 3597 1894 
L 3597 1613 
L 953 1613 
Q 991 1019 1311 708 
Q 1631 397 2203 397 
Q 2534 397 2845 478 
Q 3156 559 3463 722 
L 3463 178 
Q 3153 47 2828 -22 
Q 2503 -91 2169 -91 
Q 1331 -91 842 396 
Q 353 884 353 1716 
Q 353 2575 817 3079 
Q 1281 3584 2069 3584 
Q 2775 3584 3186 3129 
Q 3597 2675 3597 1894 
z
M 3022 2063 
Q 3016 2534 2758 2815 
Q 2500 3097 2075 3097 
Q 1594 3097 1305 2825 
Q 1016 2553 972 2059 
L 3022 2063 
z
M 2469 5119 
L 3091 5119 
L 2072 3944 
L 1594 3944 
L 2469 5119 
z
" transform="scale(0.015625)"/>
      <path id="DejaVuSans-7a" d="M 353 3500 
L 3084 3500 
L 3084 2975 
L 922 459 
L 3084 459 
L 3084 0 
L 275 0 
L 275 525 
L 2438 3041 
L 353 3041 
L 353 3500 
z
" transform="scale(0.015625)"/>
     </defs>
     <use xlink:href="#DejaVuSans-45"/>
     <use xlink:href="#DejaVuSans-6d" x="63.183594"/>
     <use xlink:href="#DejaVuSans-69" x="160.595703"/>
     <use xlink:href="#DejaVuSans-6c" x="188.378906"/>
     <use xlink:href="#DejaVuSans-69" x="216.162109"/>
     <use xlink:href="#DejaVuSans-61" x="243.945312"/>
     <use xlink:href="#DejaVuSans-20" x="305.224609"/>
     <use xlink:href="#DejaVuSans-50" x="337.011719"/>
     <use xlink:href="#DejaVuSans-e9" x="393.689453"/>
     <use xlink:href="#DejaVuSans-72" x="455.212891"/>
     <use xlink:href="#DejaVuSans-65" x="494.076172"/>
     <use xlink:href="#DejaVuSans-7a" x="555.599609"/>
    </g>
   </g>
   <g id="text_13">
    <!-- The Substance -->
    <g transform="translate(460.120964 206.785527) scale(0.08 -0.08)">
     <defs>
      <path id="DejaVuSans-53" d="M 3425 4513 
L 3425 3897 
Q 3066 4069 2747 4153 
Q 2428 4238 2131 4238 
Q 1616 4238 1336 4038 
Q 1056 3838 1056 3469 
Q 1056 3159 1242 3001 
Q 1428 2844 1947 2747 
L 2328 2669 
Q 3034 2534 3370 2195 
Q 3706 1856 3706 1288 
Q 3706 609 3251 259 
Q 2797 -91 1919 -91 
Q 1588 -91 1214 -16 
Q 841 59 441 206 
L 441 856 
Q 825 641 1194 531 
Q 1563 422 1919 422 
Q 2459 422 2753 634 
Q 3047 847 3047 1241 
Q 3047 1584 2836 1778 
Q 2625 1972 2144 2069 
L 1759 2144 
Q 1053 2284 737 2584 
Q 422 2884 422 3419 
Q 422 4038 858 4394 
Q 1294 4750 2059 4750 
Q 2388 4750 2728 4690 
Q 3069 4631 3425 4513 
z
" transform="scale(0.015625)"/>
      <path id="DejaVuSans-62" d="M 3116 1747 
Q 3116 2381 2855 2742 
Q 2594 3103 2138 3103 
Q 1681 3103 1420 2742 
Q 1159 2381 1159 1747 
Q 1159 1113 1420 752 
Q 1681 391 2138 391 
Q 2594 391 2855 752 
Q 3116 1113 3116 1747 
z
M 1159 2969 
Q 1341 3281 1617 3432 
Q 1894 3584 2278 3584 
Q 2916 3584 3314 3078 
Q 3713 2572 3713 1747 
Q 3713 922 3314 415 
Q 2916 -91 2278 -91 
Q 1894 -91 1617 61 
Q 1341 213 1159 525 
L 1159 0 
L 581 0 
L 581 4863 
L 1159 4863 
L 1159 2969 
z
" transform="scale(0.015625)"/>
     </defs>
     <use xlink:href="#DejaVuSans-54"/>
     <use xlink:href="#DejaVuSans-68" x="61.083984"/>
     <use xlink:href="#DejaVuSans-65" x="124.462891"/>
     <use xlink:href="#DejaVuSans-20" x="185.986328"/>
     <use xlink:href="#DejaVuSans-53" x="217.773438"/>
     <use xlink:href="#DejaVuSans-75" x="281.25"/>
     <use xlink:href="#DejaVuSans-62" x="344.628906"/>
     <use xlink:href="#DejaVuSans-73" x="408.105469"/>
     <use xlink:href="#DejaVuSans-74" x="460.205078"/>
     <use xlink:href="#DejaVuSans-61" x="499.414062"/>
     <use xlink:href="#DejaVuSans-6e" x="560.693359"/>
     <use xlink:href="#DejaVuSans-63" x="624.072266"/>
     <use xlink:href="#DejaVuSans-65" x="679.052734"/>
    </g>
   </g>
   <g id="text_14">
    <!-- Wicked -->
    <g transform="translate(760.880813 103.96024) scale(0.08 -0.08)">
     <defs>
      <path id="DejaVuSans-57" d="M 213 4666 
L 850 4666 
L 1831 722 
L 2809 4666 
L 3519 4666 
L 4500 722 
L 5478 4666 
L 6119 4666 
L 4947 0 
L 4153 0 
L 3169 4050 
L 2175 0 
L 1381 0 
L 213 4666 
z
" transform="scale(0.015625)"/>
      <path id="DejaVuSans-6b" d="M 581 4863 
L 1159 4863 
L 1159 1991 
L 2875 3500 
L 3609 3500 
L 1753 1863 
L 3688 0 
L 2938 0 
L 1159 1709 
L 1159 0 
L 581 0 
L 581 4863 
z
" transform="scale(0.015625)"/>
     </defs>
     <use xlink:href="#DejaVuSans-57"/>
     <use xlink:href="#DejaVuSans-69" x="96.626953"/>
     <use xlink:href="#DejaVuSans-63" x="124.410156"/>
     <use xlink:href="#DejaVuSans-6b" x="179.390625"/>
     <use xlink:href="#DejaVuSans-65" x="233.675781"/>
     <use xlink:href="#DejaVuSans-64" x="295.199219"/>
    </g>
   </g>
   <g id="text_15">
    <!-- Inside Out 2 -->
    <g transform="translate(789.205541 65.29625) scale(0.08 -0.08)">
     <defs>
      <path id="DejaVuSans-49" d="M 628 4666 
L 1259 4666 
L 1259 0 
L 628 0 
L 628 4666 
z
" transform="scale(0.015625)"/>
      <path id="DejaVuSans-4f" d="M 2522 4238 
Q 1834 4238 1429 3725 
Q 1025 3213 1025 2328 
Q 1025 1447 1429 934 
Q 1834 422 2522 422 
Q 3209 422 3611 934 
Q 4013 1447 4013 2328 
Q 4013 3213 3611 3725 
Q 3209 4238 2522 4238 
z
M 2522 4750 
Q 3503 4750 4090 4092 
Q 4678 3434 4678 2328 
Q 4678 1225 4090 567 
Q 3503 -91 2522 -91 
Q 1538 -91 948 565 
Q 359 1222 359 2328 
Q 359 3434 948 4092 
Q 1538 4750 2522 4750 
z
" transform="scale(0.015625)"/>
      <path id="DejaVuSans-32" d="M 1228 531 
L 3431 531 
L 3431 0 
L 469 0 
L 469 531 
Q 828 903 1448 1529 
Q 2069 2156 2228 2338 
Q 2531 2678 2651 2914 
Q 2772 3150 2772 3378 
Q 2772 3750 2511 3984 
Q 2250 4219 1831 4219 
Q 1534 4219 1204 4116 
Q 875 4013 500 3803 
L 500 4441 
Q 881 4594 1212 4672 
Q 1544 4750 1819 4750 
Q 2544 4750 2975 4387 
Q 3406 4025 3406 3419 
Q 3406 3131 3298 2873 
Q 3191 2616 2906 2266 
Q 2828 2175 2409 1742 
Q 1991 1309 1228 531 
z
" transform="scale(0.015625)"/>
     </defs>
     <use xlink:href="#DejaVuSans-49"/>
     <use xlink:href="#DejaVuSans-6e" x="29.492188"/>
     <use xlink:href="#DejaVuSans-73" x="92.871094"/>
     <use xlink:href="#DejaVuSans-69" x="144.970703"/>
     <use xlink:href="#DejaVuSans-64" x="172.753906"/>
     <use xlink:href="#DejaVuSans-65" x="236.230469"/>
     <use xlink:href="#DejaVuSans-20" x="297.753906"/>
     <use xlink:href="#DejaVuSans-4f" x="329.541016"/>
     <use xlink:href="#DejaVuSans-75" x="408.251953"/>
     <use xlink:href="#DejaVuSans-74" x="471.630859"/>
     <use xlink:href="#DejaVuSans-20" x="510.839844"/>
     <use xlink:href="#DejaVuSans-32" x="542.626953"/>
    </g>
   </g>
   <g id="text_16">
    <!-- Nosferatu -->
    <g transform="translate(609.652704 168.448514) scale(0.08 -0.08)">
     <defs>
      <path id="DejaVuSans-4e" d="M 628 4666 
L 1478 4666 
L 3547 763 
L 3547 4666 
L 4159 4666 
L 4159 0 
L 3309 0 
L 1241 3903 
L 1241 0 
L 628 0 
L 628 4666 
z
" transform="scale(0.015625)"/>
      <path id="DejaVuSans-66" d="M 2375 4863 
L 2375 4384 
L 1825 4384 
Q 1516 4384 1395 4259 
Q 1275 4134 1275 3809 
L 1275 3500 
L 2222 3500 
L 2222 3053 
L 1275 3053 
L 1275 0 
L 697 0 
L 697 3053 
L 147 3053 
L 147 3500 
L 697 3500 
L 697 3744 
Q 697 4328 969 4595 
Q 1241 4863 1831 4863 
L 2375 4863 
z
" transform="scale(0.015625)"/>
     </defs>
     <use xlink:href="#DejaVuSans-4e"/>
     <use xlink:href="#DejaVuSans-6f" x="74.804688"/>
     <use xlink:href="#DejaVuSans-73" x="135.986328"/>
     <use xlink:href="#DejaVuSans-66" x="188.085938"/>
     <use xlink:href="#DejaVuSans-65" x="223.291016"/>
     <use xlink:href="#DejaVuSans-72" x="284.814453"/>
     <use xlink:href="#DejaVuSans-61" x="325.927734"/>
     <use xlink:href="#DejaVuSans-74" x="387.207031"/>
     <use xlink:href="#DejaVuSans-75" x="426.416016"/>
    </g>
   </g>
   <g id="text_17">
    <!-- Gladiator II -->
    <g transform="translate(849.635909 125.047371) scale(0.08 -0.08)">
     <defs>
      <path id="DejaVuSans-47" d="M 3809 666 
L 3809 1919 
L 2778 1919 
L 2778 2438 
L 4434 2438 
L 4434 434 
Q 4069 175 3628 42 
Q 3188 -91 2688 -91 
Q 1594 -91 976 548 
Q 359 1188 359 2328 
Q 359 3472 976 4111 
Q 1594 4750 2688 4750 
Q 3144 4750 3555 4637 
Q 3966 4525 4313 4306 
L 4313 3634 
Q 3963 3931 3569 4081 
Q 3175 4231 2741 4231 
Q 1884 4231 1454 3753 
Q 1025 3275 1025 2328 
Q 1025 1384 1454 906 
Q 1884 428 2741 428 
Q 3075 428 3337 486 
Q 3600 544 3809 666 
z
" transform="scale(0.015625)"/>
     </defs>
     <use xlink:href="#DejaVuSans-47"/>
     <use xlink:href="#DejaVuSans-6c" x="77.490234"/>
     <use xlink:href="#DejaVuSans-61" x="105.273438"/>
     <use xlink:href="#DejaVuSans-64" x="166.552734"/>
     <use xlink:href="#DejaVuSans-69" x="230.029297"/>
     <use xlink:href="#DejaVuSans-61" x="257.8125"/>
     <use xlink:href="#DejaVuSans-74" x="319.091797"/>
     <use xlink:href="#DejaVuSans-6f" x="358.300781"/>
     <use xlink:href="#DejaVuSans-72" x="419.482422"/>
     <use xlink:href="#DejaVuSans-20" x="460.595703"/>
     <use xlink:href="#DejaVuSans-49" x="492.382812"/>
     <use xlink:href="#DejaVuSans-49" x="521.875"/>
    </g>
   </g>
  </g>
 </g>
 <defs>
  <clipPath id="p3e6528c168">
   <rect x="126" y="51.84" width="781.2" height="332.64"/>
  </clipPath>
 </defs>
</svg>
